<svg xmlns="http://www.w3.org/2000/svg" viewBox="0 0 84 33.46"><defs><style>.cls-1{fill:#16a0db;}</style></defs><title>GMA blue</title><g id="Layer_2" data-name="Layer 2"><g id="Layer_1-2" data-name="Layer 1"><g id="Logo"><path class="cls-1" d="M9,16.91H2.64c1.49-4,5.14-6,11-6,7,0,10.14,2,9.55,6l-1.34,7.41c-1.08,6-5.76,8.69-12.66,9.1-6.13.41-9.9-2-9-6.83C1.21,21.36,5.86,20,12.35,19.42c2.77-.28,4.28-1,4.49-2.18s-1.14-1.85-3.76-1.85c-2.25,0-3.58.49-4.1,1.52m6.72,7.16.37-2a36,36,0,0,1-5.3,1.32c-2.6.41-4.08,1.44-4.36,3S7.14,29,9.14,29c3.53,0,6-1.81,6.56-4.9"/><path class="cls-1" d="M44.4,24.32c-.68,3.75-2.22,6.22-4.68,7.41A18.58,18.58,0,0,1,32,33.42a12.48,12.48,0,0,1-6.82-1.85c-2-1.2-2.65-3.58-2-7.25l2.45-13,6.3-.12-2.6,14.23c-.44,2.43.77,3.62,3.64,3.62s4.51-1.19,4.95-3.62L40,14c.28-1.81,1.45-2.72,3.55-2.72h3.24Z"/><path class="cls-1" d="M12.68,4,12,6.8a5.91,5.91,0,0,1-3.12,1,3,3,0,0,1-3-3.92A5.41,5.41,0,0,1,10.85,0a3.42,3.42,0,0,1,2.58,1.06l-.67.67a2.76,2.76,0,0,0-2.12-.9A4.24,4.24,0,0,0,6.7,3.9,2.35,2.35,0,0,0,9.11,7a4.55,4.55,0,0,0,2.2-.66L11.89,4Z"/><path class="cls-1" d="M19.41,5.19H14.66A1.53,1.53,0,0,0,16.3,7.06a3.06,3.06,0,0,0,2-.74l.35.51a3.9,3.9,0,0,1-2.58,1c-1.71,0-2.59-1.21-2.16-2.95a3.79,3.79,0,0,1,3.62-2.94c1.88,0,2.48,1.29,1.9,3.27m-.6-.7a1.38,1.38,0,0,0-1.49-1.83,2.67,2.67,0,0,0-2.48,1.83Z"/><path class="cls-1" d="M23.34,7.38a3.08,3.08,0,0,1-1.42.44c-.85,0-1.36-.51-1.07-1.66l.84-3.34h-.84L21,2.13h.84L22.25.59h.85l-.39,1.54h1.85l-.18.7H22.54L21.74,6c-.18.71,0,1,.53,1a2.13,2.13,0,0,0,1-.3Z"/><polygon class="cls-1" points="34.69 7.78 36.27 1.39 32.06 6.96 31.54 6.96 30.13 1.39 28.53 7.78 27.69 7.78 29.63 0.02 30.72 0.02 32.15 5.6 36.36 0.02 37.44 0.02 35.5 7.78 34.69 7.78"/><path class="cls-1" d="M39.38,8.61A2.58,2.58,0,0,1,37.29,10a1.48,1.48,0,0,1-1.11-.43l.54-.72a1.13,1.13,0,0,0,.75.27,1.57,1.57,0,0,0,1.26-.82l.38-.54-1-5.79h.91l.73,4.82,3-4.82h.89Z"/><path class="cls-1" d="M83.26,10.72l-12.17-.27H71q-.51,0-1,0c-7.63,0-12.13,3.74-13.5,11.32a11.91,11.91,0,0,0,.44,7H53.49c-1.24,0-1.77-.49-1.61-1.4L54,15.6a6.49,6.49,0,0,0,.77-.18l.53-.16A4,4,0,0,0,57,14.6c2.18-1,2.76-2.23,2.88-3a.71.71,0,0,0-.58-.87l-4.4-.12.48-2.67a2.4,2.4,0,0,0-2.55-2.75H49.55L45.24,29c-.48,2.42.43,3.7,2.78,3.91s13.16.19,15.24,0l-.07-.06a18.12,18.12,0,0,0,2.64.17C73.47,33,78,29.24,79.37,21.75a12.87,12.87,0,0,0-.14-6.28c4-1.06,4.57-2.94,4.76-3.89a.74.74,0,0,0-.73-.86M72.77,21.58c-.83,4.32-2.85,6.55-6.1,6.55S62.15,26,62.86,21.75s2.85-6.51,6.19-6.51,4.49,2.1,3.72,6.34"/></g></g></g></svg>